<svg width="24" height="24" viewBox="0 0 24 24" fill="none" xmlns="http://www.w3.org/2000/svg">
<path d="M13.2109 5.83007C15.2696 4.66861 17.7861 4.66855 19.8447 5.83007L21.4238 6.7207C21.4373 6.7283 21.4501 6.73682 21.4629 6.74511C21.4684 6.74871 21.4741 6.75212 21.4795 6.75585C21.5107 6.77722 21.5385 6.802 21.5654 6.82714C21.5844 6.84482 21.6012 6.86425 21.6182 6.88378C21.6321 6.8998 21.6458 6.9156 21.6582 6.93261C21.6742 6.95452 21.6885 6.97735 21.7021 7.00097C21.7131 7.02002 21.7242 7.03873 21.7334 7.05859C21.7444 7.08231 21.7532 7.10684 21.7617 7.13183C21.7688 7.15248 21.775 7.17315 21.7803 7.19433C21.7892 7.23067 21.7973 7.26745 21.8008 7.30566C21.8015 7.31345 21.8013 7.32128 21.8018 7.3291C21.8026 7.34392 21.8047 7.35898 21.8047 7.37402V19.2949C21.8046 19.3631 21.7925 19.4284 21.7754 19.4912C21.768 19.5181 21.7605 19.5449 21.75 19.5713C21.7473 19.5781 21.7451 19.5851 21.7422 19.5918C21.7318 19.6158 21.7211 19.6398 21.708 19.6631C21.6997 19.6778 21.6898 19.6921 21.6807 19.7061C21.6783 19.7096 21.6762 19.7133 21.6738 19.7168C21.6516 19.7495 21.626 19.7786 21.5996 19.8066C21.5822 19.8252 21.5632 19.8417 21.5439 19.8584C21.5279 19.8723 21.5122 19.886 21.4951 19.8984C21.4745 19.9135 21.4528 19.9265 21.4307 19.9394C21.4087 19.9522 21.3873 19.9652 21.3643 19.9756C21.3465 19.9837 21.328 19.9894 21.3096 19.9961C21.2825 20.0059 21.2555 20.0148 21.2275 20.0215C21.1906 20.0302 21.1531 20.038 21.1143 20.041H21.1123C21.0933 20.0425 21.074 20.0449 21.0547 20.0449C21.0266 20.0449 20.9989 20.043 20.9717 20.04C20.9684 20.0397 20.9652 20.0385 20.9619 20.0381C20.9294 20.0341 20.8983 20.0256 20.8672 20.0176C20.8057 20.0016 20.7445 19.98 20.6865 19.9473L19.1074 19.0566C17.5062 18.1532 15.5485 18.1532 13.9473 19.0566L12.3691 19.9473C12.3465 19.96 12.3224 19.9702 12.2988 19.9805C12.2955 19.9819 12.2924 19.9839 12.2891 19.9853C12.2484 20.0024 12.2066 20.0149 12.1641 20.0244C12.1111 20.0363 12.0565 20.0449 12 20.0449L11.9229 20.041C11.8925 20.0379 11.8631 20.031 11.834 20.0244C11.7926 20.015 11.7516 20.0029 11.7119 19.9863C11.7045 19.9832 11.6977 19.9789 11.6904 19.9756C11.6708 19.9666 11.6508 19.958 11.6318 19.9473L10.0527 19.0566C8.45155 18.1532 6.49379 18.1533 4.89258 19.0566L3.31348 19.9473C3.2565 19.9794 3.19616 20.0006 3.13574 20.0166C3.1031 20.0252 3.07035 20.0339 3.03613 20.0381C3.03317 20.0384 3.03031 20.0397 3.02734 20.04C3.0004 20.043 2.97304 20.0449 2.94531 20.0449C2.9256 20.0449 2.90605 20.0425 2.88672 20.041H2.88477C2.8438 20.0377 2.80447 20.0291 2.76562 20.0195C2.74302 20.0139 2.72121 20.0067 2.69922 19.999C2.67733 19.9914 2.65567 19.9842 2.63477 19.9746C2.60992 19.9633 2.58607 19.9505 2.5625 19.9365C2.54459 19.9258 2.52667 19.9154 2.50977 19.9033C2.4885 19.8881 2.46895 19.871 2.44922 19.8535C2.43125 19.8375 2.41382 19.8213 2.39746 19.8037C2.37518 19.7797 2.35233 19.7558 2.33301 19.7285L2.32324 19.7139C2.32152 19.7113 2.32005 19.7086 2.31836 19.7061C2.30927 19.6922 2.30026 19.6777 2.29199 19.6631C2.27882 19.6397 2.26725 19.6159 2.25684 19.5918C2.25458 19.5866 2.25214 19.5814 2.25 19.5762C2.23678 19.5436 2.2281 19.51 2.21973 19.4766C2.20513 19.4182 2.19536 19.3577 2.19531 19.2949V7.37402C2.19531 7.359 2.19639 7.3439 2.19727 7.3291C2.19756 7.32423 2.19687 7.3193 2.19727 7.31445L2.19922 7.29687C2.2028 7.26177 2.2105 7.22783 2.21875 7.19433C2.22399 7.17319 2.23025 7.15245 2.2373 7.13183C2.24583 7.10687 2.25462 7.08228 2.26562 7.05859C2.27482 7.03876 2.28595 7.01999 2.29688 7.00097C2.31048 6.97737 2.32481 6.9545 2.34082 6.93261C2.35268 6.91636 2.36567 6.90108 2.37891 6.88574C2.39747 6.86421 2.41663 6.8435 2.4375 6.82421C2.46341 6.80032 2.4898 6.77629 2.51953 6.75585C2.52577 6.75155 2.53269 6.74826 2.53906 6.74414C2.55148 6.73614 2.56412 6.72805 2.57715 6.7207L4.15625 5.83007C6.21493 4.66866 8.7314 4.66857 10.79 5.83007L12 6.51269L13.2109 5.83007ZM10.0527 7.13574C8.45155 6.23234 6.49378 6.23239 4.89258 7.13574L3.69531 7.81152V18.0088L4.15527 17.75C6.21401 16.5885 8.73133 16.5884 10.79 17.75L11.25 18.0088V7.81152L10.0527 7.13574ZM19.1074 7.13574C17.5064 6.23248 15.5493 6.23266 13.9482 7.13574L12.75 7.81152V18.0088L13.21 17.75C15.2688 16.5884 17.7859 16.5883 19.8447 17.75L20.3047 18.0088V7.81152L19.1074 7.13574Z" fill="black" fill-opacity="0.9" style="fill:black;fill-opacity:0.9;"/>
</svg>
